<mxfile host="65bd71144e">
    <diagram id="XlPbG62ZfzjRQueGpX2F" name="Page-1">
        <mxGraphModel dx="454" dy="1396" grid="0" gridSize="1" guides="1" tooltips="1" connect="1" arrows="1" fold="1" page="1" pageScale="1" pageWidth="827" pageHeight="1169" background="none" math="0" shadow="0">
            <root>
                <mxCell id="0"/>
                <mxCell id="1" parent="0"/>
                <mxCell id="95" value="" style="rounded=1;whiteSpace=wrap;html=1;dashed=1;fontSize=10;fontColor=#004A52;strokeColor=#000000;fillColor=none;gradientColor=none;arcSize=8;perimeterSpacing=0;strokeWidth=2;" parent="1" vertex="1">
                    <mxGeometry x="7" width="809" height="414" as="geometry"/>
                </mxCell>
                <mxCell id="23" value="&lt;font style=&quot;font-size: 19px&quot;&gt;Server&lt;/font&gt;" style="text;html=1;strokeColor=none;fillColor=none;align=center;verticalAlign=middle;whiteSpace=wrap;rounded=0;fontColor=#FFFFFF;" parent="1" vertex="1">
                    <mxGeometry x="342" y="27" width="119" height="30" as="geometry"/>
                </mxCell>
                <mxCell id="40" style="edgeStyle=none;html=1;exitX=0.75;exitY=0;exitDx=0;exitDy=0;entryX=0.301;entryY=1.008;entryDx=0;entryDy=0;entryPerimeter=0;fontSize=19;fontColor=#FFFFFF;endArrow=blockThin;endFill=1;strokeWidth=2;" parent="1" source="24" target="29" edge="1">
                    <mxGeometry relative="1" as="geometry"/>
                </mxCell>
                <mxCell id="24" value="" style="rounded=1;whiteSpace=wrap;html=1;fontColor=#004A52;strokeColor=#FFFFFF;fillColor=#00636E;" parent="1" vertex="1">
                    <mxGeometry x="249.5" y="167" width="120" height="107" as="geometry"/>
                </mxCell>
                <mxCell id="28" value="Service Server" style="text;html=1;strokeColor=none;fillColor=none;align=center;verticalAlign=middle;whiteSpace=wrap;rounded=0;fontColor=#FFFFFF;" parent="1" vertex="1">
                    <mxGeometry x="263.5" y="171" width="93" height="30" as="geometry"/>
                </mxCell>
                <mxCell id="42" style="edgeStyle=none;html=1;exitX=0.105;exitY=0.994;exitDx=0;exitDy=0;entryX=0.25;entryY=0;entryDx=0;entryDy=0;fontSize=19;fontColor=#FFFFFF;endArrow=none;endFill=0;strokeWidth=2;exitPerimeter=0;" parent="1" source="29" target="24" edge="1">
                    <mxGeometry relative="1" as="geometry"/>
                </mxCell>
                <mxCell id="43" style="edgeStyle=none;html=1;exitX=0.701;exitY=1.008;exitDx=0;exitDy=0;entryX=0.25;entryY=0;entryDx=0;entryDy=0;fontSize=19;fontColor=#FFFFFF;endArrow=blockThin;endFill=1;strokeWidth=2;exitPerimeter=0;" parent="1" source="29" target="32" edge="1">
                    <mxGeometry relative="1" as="geometry"/>
                </mxCell>
                <mxCell id="29" value="" style="rounded=1;whiteSpace=wrap;html=1;fontSize=19;fontColor=#FFFFFF;strokeColor=#FFFFFF;fillColor=#00636E;" parent="1" vertex="1">
                    <mxGeometry x="248.5" y="68" width="305" height="60" as="geometry"/>
                </mxCell>
                <mxCell id="31" value="Server Controller" style="text;html=1;strokeColor=none;fillColor=none;align=center;verticalAlign=middle;whiteSpace=wrap;rounded=0;fontColor=#FFFFFF;" parent="1" vertex="1">
                    <mxGeometry x="325.5" y="68" width="150" height="30" as="geometry"/>
                </mxCell>
                <mxCell id="44" style="edgeStyle=none;html=1;exitX=0.75;exitY=0;exitDx=0;exitDy=0;entryX=0.896;entryY=0.988;entryDx=0;entryDy=0;entryPerimeter=0;fontSize=19;fontColor=#FFFFFF;endArrow=blockThin;endFill=1;strokeWidth=2;" parent="1" source="32" target="29" edge="1">
                    <mxGeometry relative="1" as="geometry"/>
                </mxCell>
                <mxCell id="32" value="" style="rounded=1;whiteSpace=wrap;html=1;fontColor=#004A52;strokeColor=#FFFFFF;fillColor=#00636E;" parent="1" vertex="1">
                    <mxGeometry x="431.5" y="164.5" width="120" height="107" as="geometry"/>
                </mxCell>
                <mxCell id="33" value="Master node" style="text;html=1;strokeColor=none;fillColor=none;align=center;verticalAlign=middle;whiteSpace=wrap;rounded=0;fontColor=#FFFFFF;" parent="1" vertex="1">
                    <mxGeometry x="455.25" y="171" width="72.5" height="30" as="geometry"/>
                </mxCell>
                <mxCell id="45" value="" style="rounded=1;whiteSpace=wrap;html=1;fontColor=#004A52;strokeColor=#FFFFFF;fillColor=#00636E;" parent="1" vertex="1">
                    <mxGeometry x="604.5" y="8" width="198" height="249" as="geometry"/>
                </mxCell>
                <mxCell id="46" value="Slave node #0" style="text;html=1;strokeColor=none;fillColor=none;align=center;verticalAlign=middle;whiteSpace=wrap;rounded=0;fontColor=#FFFFFF;" parent="1" vertex="1">
                    <mxGeometry x="659.88" y="10" width="87.25" height="30" as="geometry"/>
                </mxCell>
                <mxCell id="49" value="" style="rounded=1;whiteSpace=wrap;html=1;fontSize=19;fontColor=#FFFFFF;strokeColor=#FFFFFF;fillColor=#009999;" parent="1" vertex="1">
                    <mxGeometry x="614.5" y="43" width="176" height="91" as="geometry"/>
                </mxCell>
                <mxCell id="50" value="&lt;font style=&quot;font-size: 10px&quot;&gt;ImageTaskModule&lt;/font&gt;" style="text;html=1;strokeColor=none;fillColor=none;align=center;verticalAlign=middle;whiteSpace=wrap;rounded=0;fontColor=#FFFFFF;" parent="1" vertex="1">
                    <mxGeometry x="664.25" y="42" width="72.5" height="30" as="geometry"/>
                </mxCell>
                <mxCell id="51" value="" style="rounded=1;whiteSpace=wrap;html=1;fontSize=19;fontColor=#FFFFFF;strokeColor=#FFFFFF;fillColor=#00CCCC;" parent="1" vertex="1">
                    <mxGeometry x="615.5" y="143" width="176" height="98" as="geometry"/>
                </mxCell>
                <mxCell id="52" value="&lt;font style=&quot;font-size: 10px&quot;&gt;Yolov5TaskModule&lt;/font&gt;" style="text;html=1;strokeColor=none;fillColor=none;align=center;verticalAlign=middle;whiteSpace=wrap;rounded=0;fontColor=#FFFFFF;" parent="1" vertex="1">
                    <mxGeometry x="664.25" y="144" width="72.5" height="30" as="geometry"/>
                </mxCell>
                <mxCell id="53" value="" style="rounded=1;whiteSpace=wrap;html=1;fontColor=#004A52;strokeColor=#FFFFFF;fillColor=#00636E;" parent="1" vertex="1">
                    <mxGeometry x="601.5" y="268" width="198" height="135" as="geometry"/>
                </mxCell>
                <mxCell id="54" value="Slave node #0" style="text;html=1;strokeColor=none;fillColor=none;align=center;verticalAlign=middle;whiteSpace=wrap;rounded=0;fontColor=#FFFFFF;" parent="1" vertex="1">
                    <mxGeometry x="656.88" y="270" width="87.25" height="30" as="geometry"/>
                </mxCell>
                <mxCell id="55" value="" style="rounded=1;whiteSpace=wrap;html=1;fontSize=19;fontColor=#FFFFFF;strokeColor=#FFFFFF;fillColor=#009999;" parent="1" vertex="1">
                    <mxGeometry x="611.5" y="303" width="176" height="91" as="geometry"/>
                </mxCell>
                <mxCell id="56" value="&lt;font style=&quot;font-size: 10px&quot;&gt;ImageTaskModule&lt;/font&gt;" style="text;html=1;strokeColor=none;fillColor=none;align=center;verticalAlign=middle;whiteSpace=wrap;rounded=0;fontColor=#FFFFFF;" parent="1" vertex="1">
                    <mxGeometry x="661.25" y="302" width="72.5" height="30" as="geometry"/>
                </mxCell>
                <mxCell id="64" value="" style="rounded=1;whiteSpace=wrap;html=1;fontColor=#004A52;strokeColor=#FFFFFF;fillColor=#00636E;" parent="1" vertex="1">
                    <mxGeometry x="20.5" y="219.25" width="120" height="107" as="geometry"/>
                </mxCell>
                <mxCell id="65" value="Request #A" style="rounded=1;whiteSpace=wrap;html=1;fontColor=#ffffff;fillColor=#009999;strokeColor=#FFFFFF;arcSize=22;dashed=1;strokeWidth=2;gradientColor=none;gradientDirection=east;shadow=0;glass=0;sketch=0;" parent="1" vertex="1">
                    <mxGeometry x="28.5" y="253.25" width="107" height="28" as="geometry"/>
                </mxCell>
                <mxCell id="66" value="Request #B" style="rounded=1;whiteSpace=wrap;html=1;fontColor=#ffffff;fillColor=#00CCCC;strokeColor=#FFFFFF;arcSize=22;dashed=1;strokeWidth=2;sketch=0;" parent="1" vertex="1">
                    <mxGeometry x="28.5" y="287.25" width="107" height="28" as="geometry"/>
                </mxCell>
                <mxCell id="67" value="Client #0" style="text;html=1;strokeColor=none;fillColor=none;align=center;verticalAlign=middle;whiteSpace=wrap;rounded=0;fontColor=#FFFFFF;" parent="1" vertex="1">
                    <mxGeometry x="49.5" y="220.25" width="60" height="30" as="geometry"/>
                </mxCell>
                <mxCell id="68" value="" style="rounded=1;whiteSpace=wrap;html=1;fontColor=#004A52;strokeColor=#FFFFFF;fillColor=#333333;arcSize=11;" parent="1" vertex="1">
                    <mxGeometry x="235.5" y="24" width="334" height="375" as="geometry"/>
                </mxCell>
                <mxCell id="69" value="&lt;font style=&quot;font-size: 19px&quot;&gt;Server&lt;/font&gt;" style="text;html=1;strokeColor=none;fillColor=none;align=center;verticalAlign=middle;whiteSpace=wrap;rounded=0;fontColor=#FFFFFF;" parent="1" vertex="1">
                    <mxGeometry x="343" y="28" width="119" height="30" as="geometry"/>
                </mxCell>
                <mxCell id="71" value="" style="rounded=1;whiteSpace=wrap;html=1;fontColor=#004A52;strokeColor=#FFFFFF;fillColor=#00636E;" parent="1" vertex="1">
                    <mxGeometry x="250.5" y="168" width="140" height="209" as="geometry"/>
                </mxCell>
                <mxCell id="74" value="Service Server" style="text;html=1;strokeColor=none;fillColor=none;align=center;verticalAlign=middle;whiteSpace=wrap;rounded=0;fontColor=#FFFFFF;" parent="1" vertex="1">
                    <mxGeometry x="274.5" y="172" width="93" height="30" as="geometry"/>
                </mxCell>
                <mxCell id="77" value="" style="rounded=1;whiteSpace=wrap;html=1;fontSize=19;fontColor=#FFFFFF;strokeColor=#FFFFFF;fillColor=#4D4D4D;" parent="1" vertex="1">
                    <mxGeometry x="249.5" y="69" width="305" height="60" as="geometry"/>
                </mxCell>
                <mxCell id="78" value="Server Controller" style="text;html=1;strokeColor=none;fillColor=none;align=center;verticalAlign=middle;whiteSpace=wrap;rounded=0;fontColor=#FFFFFF;" parent="1" vertex="1">
                    <mxGeometry x="326.5" y="69" width="150" height="30" as="geometry"/>
                </mxCell>
                <mxCell id="82" value="" style="rounded=1;whiteSpace=wrap;html=1;fontColor=#004A52;strokeColor=#FFFFFF;fillColor=#00636E;arcSize=16;" parent="1" vertex="1">
                    <mxGeometry x="408.5" y="165.5" width="144" height="214.5" as="geometry"/>
                </mxCell>
                <mxCell id="83" value="Master node" style="text;html=1;strokeColor=none;fillColor=none;align=center;verticalAlign=middle;whiteSpace=wrap;rounded=0;fontColor=#FFFFFF;" parent="1" vertex="1">
                    <mxGeometry x="443.5" y="172" width="72.5" height="30" as="geometry"/>
                </mxCell>
                <mxCell id="84" value="" style="rounded=1;whiteSpace=wrap;html=1;fontColor=#004A52;strokeColor=#FFFFFF;fillColor=#00636E;" parent="1" vertex="1">
                    <mxGeometry x="605.5" y="9" width="198" height="249" as="geometry"/>
                </mxCell>
                <mxCell id="85" value="Slave node #0" style="text;html=1;strokeColor=none;fillColor=none;align=center;verticalAlign=middle;whiteSpace=wrap;rounded=0;fontColor=#FFFFFF;" parent="1" vertex="1">
                    <mxGeometry x="660.88" y="11" width="87.25" height="30" as="geometry"/>
                </mxCell>
                <mxCell id="86" value="" style="rounded=1;whiteSpace=wrap;html=1;fontSize=19;fontColor=#FFFFFF;strokeColor=#FFFFFF;fillColor=#009999;" parent="1" vertex="1">
                    <mxGeometry x="615.5" y="44" width="176" height="91" as="geometry"/>
                </mxCell>
                <mxCell id="87" value="&lt;font style=&quot;font-size: 10px&quot;&gt;ImageTaskModule&lt;/font&gt;" style="text;html=1;strokeColor=none;fillColor=none;align=center;verticalAlign=middle;whiteSpace=wrap;rounded=0;fontColor=#FFFFFF;" parent="1" vertex="1">
                    <mxGeometry x="665.25" y="43" width="72.5" height="30" as="geometry"/>
                </mxCell>
                <mxCell id="88" value="" style="rounded=1;whiteSpace=wrap;html=1;fontSize=19;fontColor=#FFFFFF;strokeColor=#FFFFFF;fillColor=#00CCCC;" parent="1" vertex="1">
                    <mxGeometry x="616.5" y="144" width="176" height="98" as="geometry"/>
                </mxCell>
                <mxCell id="89" value="&lt;font style=&quot;font-size: 10px&quot;&gt;Yolov5TaskModule&lt;/font&gt;" style="text;html=1;strokeColor=none;fillColor=none;align=center;verticalAlign=middle;whiteSpace=wrap;rounded=0;fontColor=#FFFFFF;" parent="1" vertex="1">
                    <mxGeometry x="665.25" y="145" width="72.5" height="30" as="geometry"/>
                </mxCell>
                <mxCell id="90" value="" style="rounded=1;whiteSpace=wrap;html=1;fontColor=#004A52;strokeColor=#FFFFFF;fillColor=#00636E;" parent="1" vertex="1">
                    <mxGeometry x="602.5" y="269" width="198" height="135" as="geometry"/>
                </mxCell>
                <mxCell id="91" value="Slave node #1" style="text;html=1;strokeColor=none;fillColor=none;align=center;verticalAlign=middle;whiteSpace=wrap;rounded=0;fontColor=#FFFFFF;" parent="1" vertex="1">
                    <mxGeometry x="657.88" y="271" width="87.25" height="30" as="geometry"/>
                </mxCell>
                <mxCell id="92" value="" style="rounded=1;whiteSpace=wrap;html=1;fontSize=19;fontColor=#FFFFFF;strokeColor=#FFFFFF;fillColor=#009999;" parent="1" vertex="1">
                    <mxGeometry x="612.5" y="304" width="176" height="91" as="geometry"/>
                </mxCell>
                <mxCell id="93" value="&lt;font style=&quot;font-size: 10px&quot;&gt;ImageTaskModule&lt;/font&gt;" style="text;html=1;strokeColor=none;fillColor=none;align=center;verticalAlign=middle;whiteSpace=wrap;rounded=0;fontColor=#FFFFFF;" parent="1" vertex="1">
                    <mxGeometry x="662.25" y="303" width="72.5" height="30" as="geometry"/>
                </mxCell>
                <mxCell id="94" value="&lt;font size=&quot;1&quot;&gt;&lt;b&gt;Paso 1: &lt;/b&gt;El cliente&amp;nbsp;#0, una vez autenticado, envía una requests A and B to the server&lt;/font&gt;" style="text;html=1;strokeColor=default;fillColor=#333333;align=center;verticalAlign=middle;whiteSpace=wrap;rounded=0;fontSize=10;fontColor=#FFFFFF;gradientColor=none;dashed=1;strokeWidth=2;" parent="1" vertex="1">
                    <mxGeometry x="31" y="60" width="159" height="79" as="geometry"/>
                </mxCell>
                <mxCell id="159" value="" style="rounded=1;whiteSpace=wrap;html=1;fontColor=#004A52;strokeColor=#FFFFFF;fillColor=#00636E;" parent="1" vertex="1">
                    <mxGeometry x="256.5" y="203" width="129" height="91" as="geometry"/>
                </mxCell>
                <mxCell id="160" value="Request inbox" style="text;html=1;strokeColor=none;fillColor=none;align=center;verticalAlign=middle;whiteSpace=wrap;rounded=0;fontColor=#FFFFFF;" parent="1" vertex="1">
                    <mxGeometry x="271.5" y="200" width="93" height="30" as="geometry"/>
                </mxCell>
                <mxCell id="161" value="" style="rounded=1;whiteSpace=wrap;html=1;fontColor=#004A52;strokeColor=#FFFFFF;fillColor=#00636E;" parent="1" vertex="1">
                    <mxGeometry x="256" y="299" width="129" height="68" as="geometry"/>
                </mxCell>
                <mxCell id="162" value="Response outbox" style="text;html=1;strokeColor=none;fillColor=none;align=center;verticalAlign=middle;whiteSpace=wrap;rounded=0;fontColor=#FFFFFF;" parent="1" vertex="1">
                    <mxGeometry x="271.5" y="297" width="104" height="30" as="geometry"/>
                </mxCell>
                <mxCell id="163" style="edgeStyle=none;html=1;exitX=1;exitY=0.5;exitDx=0;exitDy=0;entryX=0;entryY=0.5;entryDx=0;entryDy=0;fontSize=10;fontColor=#004A52;endArrow=blockThin;endFill=1;strokeWidth=2;" parent="1" source="64" target="71" edge="1">
                    <mxGeometry relative="1" as="geometry"/>
                </mxCell>
                <mxCell id="177" value="Request #A" style="rounded=1;whiteSpace=wrap;html=1;fontColor=#ffffff;fillColor=#009999;strokeColor=#006EAF;arcSize=22;" parent="1" vertex="1">
                    <mxGeometry x="268.5" y="225" width="107" height="28" as="geometry"/>
                </mxCell>
                <mxCell id="178" value="Request #B" style="rounded=1;whiteSpace=wrap;html=1;fontColor=#ffffff;fillColor=#00CCCC;strokeColor=#FFFFFF;arcSize=22;" parent="1" vertex="1">
                    <mxGeometry x="268" y="259.25" width="107" height="28" as="geometry"/>
                </mxCell>
            </root>
        </mxGraphModel>
    </diagram>
</mxfile>